<svg width="31" height="28" viewBox="0 0 31 28" fill="none" xmlns="http://www.w3.org/2000/svg">
<path d="M11.764 5.60001C11.1417 6.06667 10.2706 7.56001 11.764 9.8C13.2573 12.04 12.0751 13.2222 11.2973 13.5333C10.5195 14 9.43062 15.2133 11.2973 16.3333" stroke="#FDD02F" stroke-linecap="round"/>
<path d="M14.6613 5.60001C14.0391 6.06667 13.168 7.56001 14.6613 9.8C16.1546 12.04 14.9724 13.2222 14.1946 13.5333C13.4168 14 12.328 15.2133 14.1946 16.3333" stroke="#FDD02F" stroke-linecap="round"/>
<path d="M17.4614 5.60001C16.8391 6.06667 15.968 7.56001 17.4614 9.8C18.9547 12.04 17.7725 13.2222 16.9947 13.5333C16.2169 14 15.128 15.2133 16.9947 16.3333" stroke="#FDD02F" stroke-linecap="round"/>
<path d="M28.699 0.257874L5.72518 7.75045C5.49819 7.82448 5.36316 8.05734 5.41167 8.29112C5.46772 8.5612 5.74378 8.72468 6.00755 8.64397L29.1148 1.5737C29.4557 1.46941 29.661 1.12269 29.5886 0.773685C29.505 0.371008 29.09 0.13036 28.699 0.257874Z" fill="#AF101A"/>
<path d="M29.3183 2.80414L5.9164 8.82816C5.68519 8.88768 5.5357 9.11154 5.56932 9.34791C5.60816 9.62101 5.87333 9.80162 6.14168 9.73777L29.65 4.14364C29.9968 4.06112 30.2236 3.72808 30.1734 3.3752C30.1155 2.96804 29.7165 2.70162 29.3183 2.80414Z" fill="#AF101A"/>
<path d="M2.65644 18.7098L0.473965 13.6901C0.25017 13.1754 0.627424 12.6 1.1887 12.6H28.7386C29.275 12.6 29.6386 13.146 29.4318 13.6409L27.6416 17.9266C26.2382 21.2863 21.4079 22.5989 20.5333 26.1333C20.2962 27.0918 19.6447 28 18.6574 28H11.1269C9.95431 28 9.22927 26.8734 8.86666 25.7582C7.89365 22.7658 3.91107 21.5955 2.65644 18.7098Z" fill="#AF101A"/>
<path d="M23.0276 15.3842H28.5411V16.452H23.0276V15.3842ZM25.0577 19.1689H26.4995V20.0706H25.0577V19.1689ZM25.0692 20.9723H26.4995V21.8621H25.0692V20.9723ZM23.9388 22.7757H27.849V23.7842H23.9388V22.7757ZM24.7578 18.0299H25.5191V23.2147H24.7578V18.0299ZM26.0612 18.0299H26.8225V23.2265H26.0612V18.0299ZM25.1961 15.8469L26.5802 15.9062C26.5033 16.278 26.4149 16.6457 26.3149 17.0096C26.2227 17.3734 26.1342 17.6859 26.0496 17.9469L25.0231 17.8164C25.0538 17.6265 25.0808 17.4169 25.1038 17.1876C25.1346 16.9503 25.1576 16.7169 25.173 16.4876C25.1884 16.2582 25.1961 16.0446 25.1961 15.8469ZM23.2352 17.2943H28.4142V24.0452H27.3646V18.3028H24.2503V24.0689H23.2352V17.2943ZM18.2293 15.7045H22.9007V16.7486H18.2293V15.7045ZM18.3446 17.2587H22.7623V18.2909H18.3446V17.2587ZM18.0447 18.8367H23.0507V19.9401H18.0447V18.8367ZM19.9018 21.3401C20.1017 22.0361 20.3631 22.5977 20.6861 23.0248C21.0168 23.452 21.3974 23.7802 21.828 24.0096C22.2663 24.2311 22.7546 24.3813 23.2929 24.4604C23.8312 24.5395 24.4156 24.5791 25.0461 24.5791C25.1769 24.5791 25.3653 24.5791 25.6113 24.5791C25.8651 24.5791 26.1458 24.5791 26.4534 24.5791C26.7686 24.5791 27.0839 24.5791 27.3992 24.5791C27.7145 24.5791 28.0067 24.5791 28.2758 24.5791C28.5449 24.5712 28.7641 24.5633 28.9333 24.5553C28.8641 24.6582 28.7949 24.7887 28.7257 24.9469C28.6641 25.1051 28.6065 25.2672 28.5526 25.4333C28.5065 25.5994 28.4719 25.7497 28.4488 25.8842H27.7914H25C24.231 25.8842 23.5274 25.8288 22.8892 25.7181C22.251 25.6073 21.6781 25.4017 21.1706 25.1011C20.663 24.8085 20.217 24.3892 19.8326 23.8435C19.4481 23.2977 19.1251 22.5819 18.8637 21.696L19.9018 21.3401ZM19.9594 14.9333H21.2052V19.5011H19.9594V14.9333ZM19.7172 19.4655L20.9053 19.7977C20.6515 20.4938 20.317 21.1621 19.9018 21.8028C19.4865 22.4435 19.0444 22.9734 18.5753 23.3926C18.5215 23.3056 18.4407 23.1989 18.3331 23.0723C18.2331 22.9378 18.1293 22.8073 18.0216 22.6808C17.9217 22.5463 17.8256 22.4435 17.7333 22.3723C18.1639 22.0243 18.5522 21.5972 18.8983 21.0909C19.2443 20.5768 19.5173 20.035 19.7172 19.4655ZM19.8787 20.5096H22.0241V21.5655H19.3596L19.8787 20.5096ZM21.5743 20.5096H21.828L22.0587 20.474L22.8431 20.8418C22.6201 21.7435 22.3009 22.5424 21.8857 23.2384C21.4705 23.9265 20.986 24.5118 20.4323 24.9943C19.8787 25.4689 19.2751 25.8486 18.6214 26.1333C18.5753 26.0226 18.5022 25.896 18.4023 25.7537C18.31 25.6192 18.21 25.4847 18.1024 25.3503C18.0024 25.2158 17.9063 25.113 17.814 25.0418C18.4292 24.8045 18.9867 24.4881 19.4865 24.0926C19.994 23.6972 20.4285 23.2226 20.7899 22.6689C21.1513 22.1073 21.4128 21.4627 21.5743 20.735V20.5096Z" fill="black"/>
</svg>
