<svg width="67" height="31" viewBox="0 0 67 31" fill="none" xmlns="http://www.w3.org/2000/svg">
<path d="M10.4377 7.13113H20.9497V9.12482H10.4377V7.13113ZM14.3101 14.1597H17.0474V15.815H14.3101V14.1597ZM14.3198 17.498H17.057V19.1484H14.3198V17.498ZM12.1555 20.8331H19.6209V22.7116H12.1555V20.8331ZM13.7179 12.0433H15.1844V21.6485H13.7179V12.0433ZM16.2122 12.0433H17.6739V21.6678H16.2122V12.0433ZM14.575 7.99839L17.2036 8.11323C17.0552 8.80286 16.888 9.48465 16.702 10.1586C16.516 10.8325 16.3472 11.4099 16.1956 11.8906L14.2384 11.6434C14.2888 11.2864 14.3401 10.8932 14.3922 10.4637C14.4442 10.0343 14.4861 9.60608 14.5178 9.17913C14.5495 8.75219 14.5685 8.35861 14.575 7.99839ZM10.8279 10.6859H20.7082V23.2021H18.6973V12.5423H12.753V23.2312H10.8279V10.6859ZM1.28698 7.7194H10.1812V9.66161H1.28698V7.7194ZM1.4995 10.612H9.91541V12.5247H1.4995V10.612ZM0.934984 13.5283H10.4619V15.5735H0.934984V13.5283ZM4.46689 18.1743C4.85145 19.4705 5.35452 20.5155 5.97609 21.3093C6.59766 22.103 7.32388 22.7079 8.15474 23.1238C8.9856 23.5397 9.91459 23.8226 10.9417 23.9723C11.9688 24.1221 13.0777 24.197 14.2683 24.197C14.5279 24.197 14.8957 24.197 15.3718 24.197C15.8479 24.197 16.3822 24.197 16.9748 24.197C17.5673 24.197 18.1643 24.1941 18.7658 24.1884C19.3673 24.1827 19.9256 24.1769 20.4409 24.1712C20.9561 24.1655 21.3713 24.1569 21.6863 24.1455C21.5622 24.33 21.4353 24.5684 21.3055 24.8607C21.1757 25.153 21.0646 25.4539 20.9724 25.7634C20.8801 26.0729 20.8095 26.3501 20.7605 26.595H19.5232H14.1996C12.7265 26.595 11.3813 26.4948 10.164 26.2945C8.94663 26.0942 7.85272 25.7199 6.88223 25.1716C5.91173 24.6234 5.0618 23.8409 4.33242 22.8242C3.60305 21.8075 2.98404 20.4812 2.4754 18.8453L4.46689 18.1743ZM4.5654 6.30614H6.95378V14.7801H4.5654V6.30614ZM4.11177 14.7009L6.38487 15.3182C5.89266 16.6089 5.25253 17.8475 4.46449 19.0341C3.67645 20.2206 2.83172 21.2057 1.9303 21.9895C1.8291 21.8311 1.68177 21.6311 1.48831 21.3894C1.29485 21.1476 1.09568 20.9059 0.890777 20.6642C0.685879 20.4225 0.502614 20.2298 0.340984 20.086C1.14912 19.4524 1.88391 18.6608 2.54538 17.7112C3.20684 16.7615 3.72897 15.7581 4.11177 14.7009ZM4.41761 16.6457H8.51222V18.5879H3.44034L4.41761 16.6457ZM7.66475 16.6457H8.14481L8.57338 16.5674L10.0848 17.2507C9.65626 18.9245 9.04642 20.4019 8.2553 21.6831C7.46418 22.9642 6.5382 24.051 5.47736 24.9435C4.41652 25.8359 3.26438 26.5413 2.02094 27.0597C1.93441 26.8637 1.79969 26.6363 1.61679 26.3774C1.43389 26.1185 1.24161 25.8646 1.03994 25.6155C0.838266 25.3665 0.656614 25.1742 0.494984 25.0387C1.66656 24.6069 2.73091 24.0232 3.68806 23.2875C4.6452 22.5518 5.46829 21.6659 6.15732 20.6297C6.84636 19.5935 7.34884 18.4042 7.66475 17.0619V16.6457ZM32.0799 10.1672C32.0799 9.80196 32.0567 9.36702 32.0102 8.86233C31.9637 8.35765 31.8914 7.93385 31.7935 7.59093H35.2867C35.2263 7.93385 35.1814 8.36623 35.1521 8.88807C35.1228 9.40992 35.1081 9.842 35.1081 10.1843C35.1081 10.5982 35.1081 11.0474 35.1081 11.5318C35.1081 12.0162 35.1081 12.5142 35.1081 13.0256C35.1081 13.537 35.1081 14.0381 35.1081 14.5289C35.1081 15.7265 35.0149 16.8673 34.8285 17.9512C34.6421 19.035 34.3167 20.0681 33.8523 21.0503C33.388 22.0326 32.7491 22.9533 31.9357 23.8127C31.1223 24.672 30.0869 25.4817 28.8297 26.2417L26.0884 24.2084C27.2527 23.6737 28.2186 23.064 28.9863 22.3793C29.7539 21.6947 30.3658 20.9413 30.822 20.119C31.2781 19.2968 31.6018 18.4169 31.793 17.4793C31.9843 16.5416 32.0799 15.5582 32.0799 14.5289C32.0799 14.0413 32.0799 13.539 32.0799 13.0219C32.0799 12.5047 32.0799 12.0003 32.0799 11.5085C32.0799 11.0167 32.0799 10.5696 32.0799 10.1672ZM23.9127 12.4322C24.2474 12.4698 24.6296 12.5045 25.0593 12.5363C25.4891 12.5681 25.9241 12.584 26.3644 12.584C26.5421 12.584 26.899 12.584 27.4351 12.584C27.9712 12.584 28.6216 12.584 29.3865 12.584C30.1514 12.584 30.9737 12.584 31.8534 12.584C32.7331 12.584 33.6156 12.584 34.501 12.584C35.3865 12.584 36.2129 12.584 36.9802 12.584C37.7476 12.584 38.4034 12.584 38.9477 12.584C39.492 12.584 39.8628 12.584 40.0602 12.584C40.5695 12.584 41.0402 12.5689 41.4724 12.5387C41.9047 12.5085 42.235 12.4803 42.4635 12.4542V15.4626C42.235 15.4365 41.8846 15.4149 41.4124 15.3977C40.9401 15.3805 40.482 15.372 40.0382 15.372C39.8408 15.372 39.4728 15.372 38.9343 15.372C38.3957 15.372 37.7427 15.372 36.9754 15.372C36.208 15.372 35.3853 15.372 34.5072 15.372C33.6291 15.372 32.7502 15.372 31.8705 15.372C30.9908 15.372 30.1722 15.372 29.4147 15.372C28.6571 15.372 28.0132 15.372 27.4829 15.372C26.9525 15.372 26.6042 15.372 26.4379 15.372C25.96 15.372 25.5062 15.3834 25.0765 15.4063C24.6467 15.4292 24.2588 15.4537 23.9127 15.4798V12.4322ZM60.2422 7.17908C60.4328 7.43985 60.6353 7.75482 60.8496 8.12398C61.0639 8.49314 61.2724 8.86105 61.4753 9.22772C61.6781 9.59439 61.8488 9.91617 61.9872 10.1931L60.2214 10.9473C59.9932 10.4958 59.7223 9.97962 59.4088 9.39867C59.0952 8.81773 58.7917 8.3162 58.4984 7.89409L60.2422 7.17908ZM62.8417 6.18599C63.0356 6.46143 63.2442 6.78454 63.4674 7.15531C63.6906 7.52608 63.9073 7.89114 64.1175 8.25047C64.3277 8.6098 64.4946 8.91898 64.6184 9.17799L62.8698 9.93216C62.6434 9.46782 62.3672 8.94921 62.0413 8.37633C61.7154 7.80344 61.4026 7.31167 61.1028 6.901L62.8417 6.18599ZM50.7452 8.13125C50.6963 8.4592 50.6579 8.84355 50.6302 9.2843C50.6025 9.72504 50.5886 10.1035 50.5886 10.4197C50.5886 10.6383 50.5886 11.0237 50.5886 11.5761C50.5886 12.1284 50.5886 12.776 50.5886 13.5189C50.5886 14.2617 50.5886 15.0408 50.5886 15.8561C50.5886 16.6715 50.5886 17.4566 50.5886 18.2117C50.5886 18.9667 50.5886 19.6375 50.5886 20.224C50.5886 20.8105 50.5886 21.2415 50.5886 21.5169C50.5886 21.9907 50.7034 22.3171 50.9331 22.4961C51.1628 22.6752 51.5236 22.812 52.0155 22.9064C52.3479 22.9537 52.7334 22.9878 53.172 23.009C53.6107 23.0301 54.0719 23.0406 54.5556 23.0406C55.1308 23.0406 55.7664 23.0239 56.4623 22.9905C57.1583 22.957 57.8628 22.9089 58.5759 22.8461C59.289 22.7834 59.9613 22.7023 60.5929 22.6028C61.2244 22.5034 61.7675 22.395 62.2222 22.2777V25.4942C61.5358 25.5936 60.735 25.6763 59.8198 25.7423C58.9046 25.8083 57.9735 25.8576 57.0266 25.8902C56.0798 25.9227 55.1989 25.939 54.384 25.939C53.6715 25.939 52.9945 25.9166 52.3532 25.8717C51.7118 25.8268 51.1539 25.7677 50.6796 25.6944C49.7289 25.5166 48.9885 25.1597 48.4585 24.6238C47.9284 24.0879 47.6634 23.3447 47.6634 22.3943C47.6634 21.9751 47.6634 21.4249 47.6634 20.7437C47.6634 20.0624 47.6634 19.3083 47.6634 18.4814C47.6634 17.6545 47.6634 16.817 47.6634 15.969C47.6634 15.121 47.6634 14.3198 47.6634 13.5655C47.6634 12.8112 47.6634 12.1558 47.6634 11.5994C47.6634 11.0429 47.6634 10.6497 47.6634 10.4197C47.6634 10.2519 47.6569 10.0297 47.6438 9.75312C47.6308 9.47651 47.614 9.19211 47.5937 8.89995C47.5733 8.60778 47.5427 8.35155 47.5019 8.13125H50.7452ZM49.2976 14.8817C50.0051 14.7268 50.7557 14.5431 51.5493 14.3304C52.3429 14.1177 53.1409 13.8888 53.9433 13.6436C54.7458 13.3983 55.5106 13.1454 56.2379 12.8848C56.9653 12.6242 57.6164 12.3742 58.1913 12.1348C58.5844 11.9799 58.975 11.8071 59.3633 11.6163C59.7515 11.4254 60.1611 11.2011 60.592 10.9433L61.7725 13.7334C61.3498 13.9015 60.9068 14.0822 60.4435 14.2755C59.9802 14.4688 59.5675 14.6355 59.2055 14.7758C58.5555 15.0266 57.8179 15.2909 56.9926 15.5686C56.1673 15.8464 55.3073 16.1189 54.4126 16.3862C53.518 16.6534 52.633 16.9064 51.7577 17.1452C50.8823 17.3839 50.0681 17.5897 49.3148 17.7625L49.2976 14.8817Z" fill="#AF101A"/>
</svg>
